grf
version=1
nRows=14
nColumns=28
inDegrees=no
endheader
time	ground_force_1_vx	ground_force_1_vy	ground_force_1_vz	ground_force_1_px	ground_force_1_py	ground_force_1_pz	ground_moment_1_mx	ground_moment_1_my	ground_moment_1_mz	ground_force_2_vx	ground_force_2_vy	ground_force_2_vz	ground_force_2_px	ground_force_2_py	ground_force_2_pz	ground_moment_2_mx	ground_moment_2_my	ground_moment_2_mz	ground_force_3_vx	ground_force_3_vy	ground_force_3_vz	ground_force_3_px	ground_force_3_py	ground_force_3_pz	ground_moment_3_mx	ground_moment_3_my	ground_moment_3_mz
      0.35000000	      0.56414513	      0.51367667	     -0.95219491	    559.63452809	   -775.26021272	      1.01843375	      0.18800481	      0.67982783	    372.50904320	      0.19277510	      0.54743036	      0.43634078	   -856.02968518	   -576.67409512	      1.04167410	     -0.05691498	     -0.73607791	    882.02259367	      1.34037791	     -1.33211591	   -964.07345917	    429.34796263	   -448.90974392	      0.71386202	     -0.16629312	      1.22157712	    594.83494282
      0.36000000	      0.52353678	      0.62402382	     -0.87293054	    580.33902181	   -759.93601804	      0.98001761	      0.14515805	      0.52489338	    287.61330840	      0.48130089	      0.61578233	      1.09064251	   -264.67246594	  -1315.74049481	      0.46305699	     -0.04309383	     -0.55732986	    667.83355438	      1.47390330	     -1.20206380	   -964.13195151	    428.87990912	   -449.10230922	      0.71412663	     -0.14744296	      1.08310521	    527.40741022
      0.37000000	      0.43443725	      0.68626227	     -0.99642625	    545.24458900	   -778.14914898	      1.03096863	      0.14976936	      0.54156794	    296.75006810	      0.41208569	      0.57290675	      0.45147308	  -1139.88833803	   -448.14955916	      1.13061543	     -0.09296043	     -1.20225152	   1440.62604493	      1.74404508	     -1.58400832	   -963.06330607	    428.88860221	   -448.94983231	      0.71381592	     -0.14891980	      1.09395396	    532.69010301
      0.38000000	      0.45687830	      0.63033430	     -1.25202789	    523.38688004	  -1009.77693893	      1.46472017	      0.09610039	      0.34750024	    190.41142209	      0.24541395	      0.48990662	      0.93081095	   -249.34446844	  -1215.05243967	      0.54807368	     -0.03538217	     -0.45759544	    548.32444969	      1.61406894	     -1.51394541	   -963.79929270	    428.80534687	   -449.12993736	      0.71416252	     -0.12259544	      0.90057717	    438.52718072
      0.39000000	      0.60398670	      0.72311970	     -1.17907086	    548.02122042	   -879.61801476	      1.21474763	      0.12724624	      0.46012406	    252.12320818	      0.45105651	      0.48636816	      0.36582710	  -1584.99133842	   -489.96425000	      1.06699813	     -0.10808247	     -1.39782391	   1674.97524045	      1.58768416	     -1.37905938	   -963.20129136	    428.72118755	   -449.39121228	      0.71467556	     -0.09905317	      0.72763737	    354.31584590
      0.40000000	      0.56395639	      0.67538194	     -0.63570992	    672.73549197	   -499.76802253	      0.45857947	      0.21581835	      0.78040196	    427.61825152	      0.46650866	      0.51014651	      0.34902278	  -1598.48918141	    -63.20336135	      1.42227364	     -0.12218781	     -1.58024732	   1893.56836498	      1.69649969	     -1.56511412	   -962.81863522	    428.65497898	   -449.21355778	      0.71429221	     -0.08343352	      0.61289656	    298.44394296
      0.41000000	      0.45857820	      0.77733586	     -0.81594574	    531.53360139	   -679.52195245	      0.85789423	      0.17525743	      0.63373314	    347.25163681	      0.21145693	      0.53105079	      1.40534862	    -52.81918589	  -1480.02099805	      0.33962974	     -0.02582132	     -0.33394553	    400.15804787	      1.60004244	     -1.79073005	   -961.85439376	    428.49492901	   -449.33005843	      0.71448672	     -0.05442899	      0.39983136	    194.69394242
      0.42000000	      0.51155405	      0.65640363	     -1.34255734	    543.46785617	   -885.05233232	      1.22696332	      0.12177523	      0.44034080	    241.28305019	      0.30889161	      0.61096028	      0.74706718	   -302.81364367	  -1095.94513536	      0.64402254	     -0.04372675	     -0.56551530	    677.64195739	      1.40791798	     -1.96312294	   -961.74128493	    428.27915661	   -449.31759830	      0.71440081	     -0.01411476	      0.10368601	     50.48888014
      0.43000000	      0.51523887	      0.61965315	     -1.31611573	    517.29604168	   -936.29042760	      1.33368156	      0.13446676	      0.48623354	    266.42980089	      0.45867456	      0.64323800	      1.21735220	   -103.30208537	  -1351.35657783	      0.44374703	     -0.03682046	     -0.47619677	    570.61393515	      1.50964616	     -2.28316657	   -961.80720328	    428.43653845	   -449.48866250	      0.71479611	     -0.02581013	      0.18959936	     92.32353996
      0.44000000	      0.62595930	      0.61652024	     -0.80566573	    499.13217579	   -672.33232749	      0.86112614	      0.23047531	      0.83340171	    456.65926296	      0.37685985	      0.73460921	      0.93791862	   -225.45669305	  -1255.36825285	      0.51597019	     -0.04876301	     -0.63064895	    755.68987426	      1.77615017	     -2.80174465	   -960.84138220	    428.05217517	   -449.36388026	      0.71443240	     -0.00698406	      0.05130436	     24.98215368
      0.45000000	      0.68442981	      0.87630254	     -1.26903775	    522.82372206	   -943.17880822	      1.34346302	      0.12825383	      0.46376752	    254.11962895	      0.19268599	      0.66378970	      0.96155770	   -106.04065915	  -1250.80070761	      0.52748762	     -0.03501098	     -0.45279481	    542.57198051	      1.82103380	     -2.82762943	   -960.69501706	    428.18409669	   -449.20029769	      0.71413334	     -0.03293705	      0.24195318	    117.81671890
      0.46000000	      0.73904792	      0.63808927	     -0.83075496	    574.33904875	   -807.30240795	      1.06948930	      0.19327689	      0.69889175	    382.95504633	      0.61943969	      0.57530798	      0.40994715	  -2728.23515392	   1057.73485828	      2.28483476	     -0.24236167	     -3.13444846	   3755.92628228	      2.00999100	     -1.71390507	   -961.49013857	    428.12837088	   -449.68760847	      0.71511852	     -0.06245344	      0.45877843	    223.39763824
      0.47000000	      0.71607484	      0.46362445	     -0.83535366	    599.62391914	   -826.65468316	      1.09204590	      0.17039784	      0.61616079	    337.62293473	      0.22024832	      0.69282904	      0.95693593	   -324.20767494	  -1161.98749550	      0.58752743	     -0.04518577	     -0.58438474	    700.25270182	      2.27744334	     -1.50004403	   -962.18442772	    428.15836351	   -449.83533670	      0.71543028	     -0.08661437	      0.63626284	    309.82192006
      0.48000000	      0.57125869	      0.53902769	     -0.98294655	    472.29793781	   -828.76472927	      1.16015798	      0.18984495	      0.68648178	    376.15505393	      0.58967785	      0.79103193	      0.21389891	  -3372.00968365	    712.92974925	      1.95554179	     -0.29253458	     -3.78333161	   4533.46570903	      2.37201467	     -1.14169921	   -961.94859132	    427.72233400	   -449.84893756	      0.71533632	     -0.12845581	      0.94362702	    459.48987926
